STARTFONT 2.1
FONT -Monotype-Century Gothic-Bold-R-Normal--10-100-72-72-P-47-iso8859-1
SIZE 10 72 72
FONTBOUNDINGBOX 11 12 -1 -2

STARTPROPERTIES 22
FOUNDRY "Monotype"
FAMILY_NAME "Century Gothic"
WEIGHT_NAME "Bold"
SLANT "R"
SETWIDTH_NAME "Normal"
ADD_STYLE_NAME ""
PIXEL_SIZE 10
POINT_SIZE 100
RESOLUTION_X 72
RESOLUTION_Y 72
SPACING "P"
AVERAGE_WIDTH 47
CHARSET_REGISTRY "iso8859"
CHARSET_ENCODING "1"
COPYRIGHT "Copyright (c) 1996 Monotype Typography Ltd."
CAP_HEIGHT 8
X_HEIGHT 6
WEIGHT 10
QUAD_WIDTH 6
DEFAULT_CHAR 32
FONT_DESCENT 2
FONT_ASCENT 10
ENDPROPERTIES

CHARS 191

STARTCHAR space
ENCODING 32
SWIDTH 280 0
DWIDTH 3 0
BBX 0 0 0 0
BITMAP
ENDCHAR

STARTCHAR exclam
ENCODING 33
SWIDTH 280 0
DWIDTH 3 0
BBX 2 7 1 0
BITMAP
40
40
40
40
40
00
C0
ENDCHAR

STARTCHAR quotedbl
ENCODING 34
SWIDTH 360 0
DWIDTH 4 0
BBX 3 3 1 4
BITMAP
A0
A0
A0
ENDCHAR

STARTCHAR numbersign
ENCODING 35
SWIDTH 600 0
DWIDTH 6 0
BBX 5 8 1 0
BITMAP
28
28
F8
50
F8
A0
A0
A0
ENDCHAR

STARTCHAR dollar
ENCODING 36
SWIDTH 560 0
DWIDTH 6 0
BBX 5 9 1 -1
BITMAP
20
78
A8
E0
70
38
A8
F0
20
ENDCHAR

STARTCHAR percent
ENCODING 37
SWIDTH 860 0
DWIDTH 9 0
BBX 9 8 0 0
BITMAP
6600
BC00
9400
6800
1300
1580
2480
4300
ENDCHAR

STARTCHAR ampersand
ENCODING 38
SWIDTH 680 0
DWIDTH 7 0
BBX 6 7 1 0
BITMAP
70
50
20
60
DC
98
74
ENDCHAR

STARTCHAR quoteright
ENCODING 39
SWIDTH 280 0
DWIDTH 3 0
BBX 2 3 1 4
BITMAP
40
40
80
ENDCHAR

STARTCHAR parenleft
ENCODING 40
SWIDTH 380 0
DWIDTH 4 0
BBX 3 10 1 -2
BITMAP
60
40
C0
80
80
80
80
C0
40
60
ENDCHAR

STARTCHAR parenright
ENCODING 41
SWIDTH 380 0
DWIDTH 4 0
BBX 3 10 1 -2
BITMAP
C0
40
60
20
20
20
20
60
40
C0
ENDCHAR

STARTCHAR asterisk
ENCODING 42
SWIDTH 440 0
DWIDTH 4 0
BBX 4 4 0 4
BITMAP
40
70
E0
20
ENDCHAR

STARTCHAR plus
ENCODING 43
SWIDTH 600 0
DWIDTH 6 0
BBX 5 5 1 1
BITMAP
20
20
F8
20
20
ENDCHAR

STARTCHAR comma
ENCODING 44
SWIDTH 280 0
DWIDTH 3 0
BBX 2 3 1 -1
BITMAP
40
40
80
ENDCHAR

STARTCHAR minus
ENCODING 45
SWIDTH 600 0
DWIDTH 6 0
BBX 5 1 1 3
BITMAP
F8
ENDCHAR

STARTCHAR period
ENCODING 46
SWIDTH 280 0
DWIDTH 3 0
BBX 2 1 1 0
BITMAP
C0
ENDCHAR

STARTCHAR slash
ENCODING 47
SWIDTH 460 0
DWIDTH 5 0
BBX 4 9 1 -2
BITMAP
10
10
20
20
20
40
40
80
80
ENDCHAR

STARTCHAR zero
ENCODING 48
SWIDTH 560 0
DWIDTH 6 0
BBX 5 7 1 0
BITMAP
70
D8
88
88
88
D8
70
ENDCHAR

STARTCHAR one
ENCODING 49
SWIDTH 560 0
DWIDTH 6 0
BBX 3 7 1 0
BITMAP
E0
20
20
20
20
20
20
ENDCHAR

STARTCHAR two
ENCODING 50
SWIDTH 560 0
DWIDTH 6 0
BBX 5 7 1 0
BITMAP
70
D8
08
18
30
60
F8
ENDCHAR

STARTCHAR three
ENCODING 51
SWIDTH 560 0
DWIDTH 6 0
BBX 5 7 1 0
BITMAP
70
D8
08
30
08
D8
70
ENDCHAR

STARTCHAR four
ENCODING 52
SWIDTH 560 0
DWIDTH 6 0
BBX 5 7 1 0
BITMAP
10
30
70
D0
F8
10
10
ENDCHAR

STARTCHAR five
ENCODING 53
SWIDTH 560 0
DWIDTH 6 0
BBX 5 7 1 0
BITMAP
78
40
70
58
08
D8
70
ENDCHAR

STARTCHAR six
ENCODING 54
SWIDTH 560 0
DWIDTH 6 0
BBX 5 7 1 0
BITMAP
30
60
40
F0
98
C8
70
ENDCHAR

STARTCHAR seven
ENCODING 55
SWIDTH 560 0
DWIDTH 6 0
BBX 4 7 1 0
BITMAP
F0
30
20
60
40
C0
80
ENDCHAR

STARTCHAR eight
ENCODING 56
SWIDTH 560 0
DWIDTH 6 0
BBX 5 7 1 0
BITMAP
70
D8
88
70
88
D8
70
ENDCHAR

STARTCHAR nine
ENCODING 57
SWIDTH 560 0
DWIDTH 6 0
BBX 5 7 1 0
BITMAP
70
98
C8
78
10
30
60
ENDCHAR

STARTCHAR colon
ENCODING 58
SWIDTH 280 0
DWIDTH 3 0
BBX 2 4 1 1
BITMAP
C0
00
00
C0
ENDCHAR

STARTCHAR semicolon
ENCODING 59
SWIDTH 280 0
DWIDTH 3 0
BBX 2 6 1 -1
BITMAP
C0
00
00
40
40
80
ENDCHAR

STARTCHAR less
ENCODING 60
SWIDTH 600 0
DWIDTH 6 0
BBX 5 5 1 1
BITMAP
38
60
C0
60
38
ENDCHAR

STARTCHAR equal
ENCODING 61
SWIDTH 600 0
DWIDTH 6 0
BBX 4 3 1 2
BITMAP
F0
00
F0
ENDCHAR

STARTCHAR greater
ENCODING 62
SWIDTH 600 0
DWIDTH 6 0
BBX 5 5 1 1
BITMAP
E0
30
18
30
E0
ENDCHAR

STARTCHAR question
ENCODING 63
SWIDTH 560 0
DWIDTH 6 0
BBX 4 8 1 0
BITMAP
70
90
10
30
60
40
00
60
ENDCHAR

STARTCHAR at
ENCODING 64
SWIDTH 740 0
DWIDTH 7 0
BBX 8 8 0 0
BITMAP
7E
C3
9D
B5
A5
9F
C0
7C
ENDCHAR

STARTCHAR A
ENCODING 65
SWIDTH 740 0
DWIDTH 7 0
BBX 7 7 0 0
BITMAP
10
38
28
44
7C
C6
82
ENDCHAR

STARTCHAR B
ENCODING 66
SWIDTH 580 0
DWIDTH 6 0
BBX 5 7 1 0
BITMAP
F0
90
90
F0
88
98
F0
ENDCHAR

STARTCHAR C
ENCODING 67
SWIDTH 780 0
DWIDTH 8 0
BBX 7 7 1 0
BITMAP
7C
C6
80
80
80
C6
7C
ENDCHAR

STARTCHAR D
ENCODING 68
SWIDTH 700 0
DWIDTH 7 0
BBX 6 7 1 0
BITMAP
F8
8C
84
84
84
8C
F8
ENDCHAR

STARTCHAR E
ENCODING 69
SWIDTH 520 0
DWIDTH 5 0
BBX 4 7 1 0
BITMAP
F0
80
80
F0
80
80
F0
ENDCHAR

STARTCHAR F
ENCODING 70
SWIDTH 480 0
DWIDTH 5 0
BBX 4 7 1 0
BITMAP
F0
80
80
F0
80
80
80
ENDCHAR

STARTCHAR G
ENCODING 71
SWIDTH 840 0
DWIDTH 8 0
BBX 7 7 1 0
BITMAP
7C
C6
80
8E
82
C6
7C
ENDCHAR

STARTCHAR H
ENCODING 72
SWIDTH 680 0
DWIDTH 7 0
BBX 5 7 1 0
BITMAP
88
88
88
F8
88
88
88
ENDCHAR

STARTCHAR I
ENCODING 73
SWIDTH 280 0
DWIDTH 3 0
BBX 1 7 1 0
BITMAP
80
80
80
80
80
80
80
ENDCHAR

STARTCHAR J
ENCODING 74
SWIDTH 480 0
DWIDTH 5 0
BBX 4 7 1 0
BITMAP
10
10
10
10
10
D0
60
ENDCHAR

STARTCHAR K
ENCODING 75
SWIDTH 620 0
DWIDTH 6 0
BBX 5 7 1 0
BITMAP
98
B0
C0
E0
B0
90
98
ENDCHAR

STARTCHAR L
ENCODING 76
SWIDTH 440 0
DWIDTH 4 0
BBX 4 7 0 0
BITMAP
80
80
80
80
80
80
F0
ENDCHAR

STARTCHAR M
ENCODING 77
SWIDTH 900 0
DWIDTH 10 0
BBX 9 7 1 0
BITMAP
4100
6300
6300
5500
D580
8880
8880
ENDCHAR

STARTCHAR N
ENCODING 78
SWIDTH 740 0
DWIDTH 7 0
BBX 6 7 1 0
BITMAP
84
C4
E4
B4
9C
8C
84
ENDCHAR

STARTCHAR O
ENCODING 79
SWIDTH 840 0
DWIDTH 8 0
BBX 7 7 1 0
BITMAP
7C
C6
82
82
82
C6
7C
ENDCHAR

STARTCHAR P
ENCODING 80
SWIDTH 560 0
DWIDTH 6 0
BBX 5 7 1 0
BITMAP
F0
88
88
F0
80
80
80
ENDCHAR

STARTCHAR Q
ENCODING 81
SWIDTH 840 0
DWIDTH 8 0
BBX 7 7 1 0
BITMAP
7C
C6
82
82
9A
CC
7E
ENDCHAR

STARTCHAR R
ENCODING 82
SWIDTH 580 0
DWIDTH 6 0
BBX 5 7 1 0
BITMAP
F0
88
88
F0
A0
B0
98
ENDCHAR

STARTCHAR S
ENCODING 83
SWIDTH 520 0
DWIDTH 5 0
BBX 4 7 1 0
BITMAP
60
90
C0
60
30
90
60
ENDCHAR

STARTCHAR T
ENCODING 84
SWIDTH 420 0
DWIDTH 4 0
BBX 3 7 1 0
BITMAP
E0
40
40
40
40
40
40
ENDCHAR

STARTCHAR U
ENCODING 85
SWIDTH 640 0
DWIDTH 6 0
BBX 5 7 1 0
BITMAP
88
88
88
88
88
D8
70
ENDCHAR

STARTCHAR V
ENCODING 86
SWIDTH 700 0
DWIDTH 7 0
BBX 5 7 1 0
BITMAP
88
88
88
D8
50
70
20
ENDCHAR

STARTCHAR W
ENCODING 87
SWIDTH 900 0
DWIDTH 9 0
BBX 9 7 0 0
BITMAP
8880
8880
9C80
5500
5500
3600
2200
ENDCHAR

STARTCHAR X
ENCODING 88
SWIDTH 680 0
DWIDTH 7 0
BBX 5 7 1 0
BITMAP
88
88
70
20
70
88
88
ENDCHAR

STARTCHAR Y
ENCODING 89
SWIDTH 620 0
DWIDTH 6 0
BBX 5 7 1 0
BITMAP
88
D8
50
20
20
20
20
ENDCHAR

STARTCHAR Z
ENCODING 90
SWIDTH 500 0
DWIDTH 5 0
BBX 5 7 0 0
BITMAP
F8
10
30
20
60
40
F8
ENDCHAR

STARTCHAR bracketleft
ENCODING 91
SWIDTH 320 0
DWIDTH 3 0
BBX 2 9 1 -2
BITMAP
C0
80
80
80
80
80
80
80
C0
ENDCHAR

STARTCHAR backslash
ENCODING 92
SWIDTH 640 0
DWIDTH 6 0
BBX 5 8 1 -1
BITMAP
80
80
40
20
20
10
08
08
ENDCHAR

STARTCHAR bracketright
ENCODING 93
SWIDTH 320 0
DWIDTH 3 0
BBX 2 9 1 -2
BITMAP
C0
40
40
40
40
40
40
40
C0
ENDCHAR

STARTCHAR asciicircum
ENCODING 94
SWIDTH 600 0
DWIDTH 6 0
BBX 6 6 0 1
BITMAP
30
30
78
48
CC
84
ENDCHAR

STARTCHAR underscore
ENCODING 95
SWIDTH 500 0
DWIDTH 5 0
BBX 5 1 0 -2
BITMAP
F8
ENDCHAR

STARTCHAR quoteleft
ENCODING 96
SWIDTH 280 0
DWIDTH 3 0
BBX 2 3 1 4
BITMAP
40
80
80
ENDCHAR

STARTCHAR a
ENCODING 97
SWIDTH 660 0
DWIDTH 7 0
BBX 6 5 1 0
BITMAP
74
CC
84
CC
74
ENDCHAR

STARTCHAR b
ENCODING 98
SWIDTH 660 0
DWIDTH 7 0
BBX 6 7 1 0
BITMAP
80
80
B8
CC
84
CC
B8
ENDCHAR

STARTCHAR c
ENCODING 99
SWIDTH 640 0
DWIDTH 6 0
BBX 5 5 1 0
BITMAP
70
C8
80
C8
70
ENDCHAR

STARTCHAR d
ENCODING 100
SWIDTH 660 0
DWIDTH 7 0
BBX 6 7 1 0
BITMAP
04
04
74
CC
84
CC
74
ENDCHAR

STARTCHAR e
ENCODING 101
SWIDTH 640 0
DWIDTH 6 0
BBX 5 5 1 0
BITMAP
70
C8
F0
C0
78
ENDCHAR

STARTCHAR f
ENCODING 102
SWIDTH 280 0
DWIDTH 3 0
BBX 3 7 0 0
BITMAP
60
40
E0
40
40
40
40
ENDCHAR

STARTCHAR g
ENCODING 103
SWIDTH 660 0
DWIDTH 7 0
BBX 6 7 1 -2
BITMAP
74
CC
84
CC
74
84
78
ENDCHAR

STARTCHAR h
ENCODING 104
SWIDTH 600 0
DWIDTH 6 0
BBX 5 7 1 0
BITMAP
80
80
B0
E8
C8
88
88
ENDCHAR

STARTCHAR i
ENCODING 105
SWIDTH 240 0
DWIDTH 2 0
BBX 1 7 1 0
BITMAP
80
00
80
80
80
80
80
ENDCHAR

STARTCHAR j
ENCODING 106
SWIDTH 260 0
DWIDTH 3 0
BBX 2 9 1 -2
BITMAP
40
00
40
40
40
40
40
40
C0
ENDCHAR

STARTCHAR k
ENCODING 107
SWIDTH 580 0
DWIDTH 6 0
BBX 5 7 1 0
BITMAP
80
80
98
B0
E0
B0
98
ENDCHAR

STARTCHAR l
ENCODING 108
SWIDTH 240 0
DWIDTH 2 0
BBX 1 7 1 0
BITMAP
80
80
80
80
80
80
80
ENDCHAR

STARTCHAR m
ENCODING 109
SWIDTH 940 0
DWIDTH 9 0
BBX 9 5 0 0
BITMAP
B300
EE80
CC80
8880
8880
ENDCHAR

STARTCHAR n
ENCODING 110
SWIDTH 600 0
DWIDTH 6 0
BBX 5 5 1 0
BITMAP
B0
E8
C8
88
88
ENDCHAR

STARTCHAR o
ENCODING 111
SWIDTH 640 0
DWIDTH 6 0
BBX 5 5 1 0
BITMAP
70
D8
88
D8
70
ENDCHAR

STARTCHAR p
ENCODING 112
SWIDTH 660 0
DWIDTH 7 0
BBX 6 7 1 -2
BITMAP
B8
CC
84
CC
B8
80
80
ENDCHAR

STARTCHAR q
ENCODING 113
SWIDTH 660 0
DWIDTH 7 0
BBX 6 7 1 -2
BITMAP
74
CC
84
CC
74
04
04
ENDCHAR

STARTCHAR r
ENCODING 114
SWIDTH 320 0
DWIDTH 3 0
BBX 3 5 0 0
BITMAP
A0
C0
80
80
80
ENDCHAR

STARTCHAR s
ENCODING 115
SWIDTH 440 0
DWIDTH 4 0
BBX 4 5 0 0
BITMAP
70
C0
60
30
E0
ENDCHAR

STARTCHAR t
ENCODING 116
SWIDTH 300 0
DWIDTH 3 0
BBX 3 7 0 0
BITMAP
40
40
E0
40
40
40
40
ENDCHAR

STARTCHAR u
ENCODING 117
SWIDTH 600 0
DWIDTH 6 0
BBX 5 5 1 0
BITMAP
88
88
88
D8
70
ENDCHAR

STARTCHAR v
ENCODING 118
SWIDTH 560 0
DWIDTH 6 0
BBX 5 5 1 0
BITMAP
88
D8
50
70
20
ENDCHAR

STARTCHAR w
ENCODING 119
SWIDTH 800 0
DWIDTH 8 0
BBX 7 5 1 0
BITMAP
92
92
BA
6C
44
ENDCHAR

STARTCHAR x
ENCODING 120
SWIDTH 560 0
DWIDTH 6 0
BBX 6 5 0 0
BITMAP
CC
68
30
58
CC
ENDCHAR

STARTCHAR y
ENCODING 121
SWIDTH 580 0
DWIDTH 6 0
BBX 5 7 1 -2
BITMAP
88
D8
50
70
20
60
C0
ENDCHAR

STARTCHAR z
ENCODING 122
SWIDTH 460 0
DWIDTH 5 0
BBX 4 5 1 0
BITMAP
F0
30
20
40
F0
ENDCHAR

STARTCHAR braceleft
ENCODING 123
SWIDTH 340 0
DWIDTH 3 0
BBX 3 9 0 -2
BITMAP
20
60
40
40
C0
40
40
60
20
ENDCHAR

STARTCHAR bar
ENCODING 124
SWIDTH 600 0
DWIDTH 6 0
BBX 1 9 2 -2
BITMAP
80
80
80
80
80
80
80
80
80
ENDCHAR

STARTCHAR braceright
ENCODING 125
SWIDTH 340 0
DWIDTH 3 0
BBX 3 9 0 -2
BITMAP
80
C0
40
40
60
40
40
C0
80
ENDCHAR

STARTCHAR asciitilde
ENCODING 126
SWIDTH 600 0
DWIDTH 6 0
BBX 5 2 1 3
BITMAP
E8
B8
ENDCHAR

STARTCHAR space
ENCODING 160
SWIDTH 280 0
DWIDTH 3 0
BBX 0 0 0 0
BITMAP
ENDCHAR

STARTCHAR exclamdown
ENCODING 161
SWIDTH 280 0
DWIDTH 3 0
BBX 2 7 0 -2
BITMAP
C0
00
40
40
40
40
40
ENDCHAR

STARTCHAR cent
ENCODING 162
SWIDTH 560 0
DWIDTH 6 0
BBX 5 7 1 -1
BITMAP
08
70
D8
A0
C8
70
80
ENDCHAR

STARTCHAR sterling
ENCODING 163
SWIDTH 560 0
DWIDTH 6 0
BBX 5 7 1 0
BITMAP
30
58
40
F0
20
48
F8
ENDCHAR

STARTCHAR currency
ENCODING 164
SWIDTH 600 0
DWIDTH 6 0
BBX 5 5 1 1
BITMAP
A8
D8
88
D8
A8
ENDCHAR

STARTCHAR yen
ENCODING 165
SWIDTH 560 0
DWIDTH 6 0
BBX 5 7 1 0
BITMAP
88
50
70
20
F8
20
20
ENDCHAR

STARTCHAR brokenbar
ENCODING 166
SWIDTH 600 0
DWIDTH 6 0
BBX 1 9 3 -2
BITMAP
80
80
80
00
00
00
80
80
80
ENDCHAR

STARTCHAR section
ENCODING 167
SWIDTH 560 0
DWIDTH 6 0
BBX 4 10 1 -2
BITMAP
60
90
C0
60
B0
D0
60
30
90
60
ENDCHAR

STARTCHAR dieresis
ENCODING 168
SWIDTH 500 0
DWIDTH 5 0
BBX 3 1 1 6
BITMAP
A0
ENDCHAR

STARTCHAR copyright
ENCODING 169
SWIDTH 740 0
DWIDTH 7 0
BBX 8 7 0 0
BITMAP
3C
5A
A5
A1
A5
5A
3C
ENDCHAR

STARTCHAR ordfeminine
ENCODING 170
SWIDTH 360 0
DWIDTH 4 0
BBX 3 4 1 3
BITMAP
60
A0
A0
E0
ENDCHAR

STARTCHAR guillemotleft
ENCODING 171
SWIDTH 460 0
DWIDTH 5 0
BBX 6 5 0 0
BITMAP
6C
48
D8
48
6C
ENDCHAR

STARTCHAR logicalnot
ENCODING 172
SWIDTH 600 0
DWIDTH 6 0
BBX 5 3 1 2
BITMAP
F8
08
08
ENDCHAR

STARTCHAR hyphen
ENCODING 173
SWIDTH 420 0
DWIDTH 4 0
BBX 2 1 1 2
BITMAP
C0
ENDCHAR

STARTCHAR registered
ENCODING 174
SWIDTH 740 0
DWIDTH 7 0
BBX 8 8 0 0
BITMAP
3C
42
B9
AD
B9
AD
42
3C
ENDCHAR

STARTCHAR macron
ENCODING 175
SWIDTH 420 0
DWIDTH 4 0
BBX 3 1 1 6
BITMAP
E0
ENDCHAR

STARTCHAR degree
ENCODING 176
SWIDTH 400 0
DWIDTH 4 0
BBX 4 4 0 3
BITMAP
60
90
90
60
ENDCHAR

STARTCHAR plusminus
ENCODING 177
SWIDTH 600 0
DWIDTH 6 0
BBX 5 7 1 0
BITMAP
20
20
F8
20
20
00
F8
ENDCHAR

STARTCHAR twosuperior
ENCODING 178
SWIDTH 336 0
DWIDTH 3 0
BBX 3 4 0 3
BITMAP
E0
20
40
E0
ENDCHAR

STARTCHAR threesuperior
ENCODING 179
SWIDTH 336 0
DWIDTH 3 0
BBX 3 4 0 3
BITMAP
E0
40
20
C0
ENDCHAR

STARTCHAR acute
ENCODING 180
SWIDTH 420 0
DWIDTH 4 0
BBX 3 2 1 6
BITMAP
60
80
ENDCHAR

STARTCHAR mu
ENCODING 181
SWIDTH 576 0
DWIDTH 6 0
BBX 5 7 1 -2
BITMAP
88
88
88
D8
B8
80
80
ENDCHAR

STARTCHAR paragraph
ENCODING 182
SWIDTH 600 0
DWIDTH 6 0
BBX 6 9 0 -1
BITMAP
7C
E8
E8
68
28
28
28
28
28
ENDCHAR

STARTCHAR periodcentered
ENCODING 183
SWIDTH 280 0
DWIDTH 3 0
BBX 2 2 1 3
BITMAP
C0
C0
ENDCHAR

STARTCHAR cedilla
ENCODING 184
SWIDTH 340 0
DWIDTH 3 0
BBX 2 2 1 -2
BITMAP
40
C0
ENDCHAR

STARTCHAR onesuperior
ENCODING 185
SWIDTH 336 0
DWIDTH 3 0
BBX 2 4 0 3
BITMAP
C0
40
40
40
ENDCHAR

STARTCHAR ordmasculine
ENCODING 186
SWIDTH 360 0
DWIDTH 4 0
BBX 3 4 0 3
BITMAP
40
A0
A0
40
ENDCHAR

STARTCHAR guillemotright
ENCODING 187
SWIDTH 460 0
DWIDTH 5 0
BBX 6 5 0 0
BITMAP
D8
48
6C
48
D8
ENDCHAR

STARTCHAR onequarter
ENCODING 188
SWIDTH 840 0
DWIDTH 8 0
BBX 8 8 0 -1
BITMAP
C4
4C
48
51
13
27
61
40
ENDCHAR

STARTCHAR onehalf
ENCODING 189
SWIDTH 840 0
DWIDTH 8 0
BBX 8 8 0 -1
BITMAP
C4
4C
48
57
11
22
67
40
ENDCHAR

STARTCHAR threequarters
ENCODING 190
SWIDTH 840 0
DWIDTH 8 0
BBX 8 8 0 -1
BITMAP
E4
4C
28
D1
13
27
61
40
ENDCHAR

STARTCHAR questiondown
ENCODING 191
SWIDTH 560 0
DWIDTH 6 0
BBX 4 8 1 -2
BITMAP
60
00
20
60
C0
80
90
E0
ENDCHAR

STARTCHAR Agrave
ENCODING 192
SWIDTH 740 0
DWIDTH 7 0
BBX 7 10 0 0
BITMAP
30
08
00
10
38
28
44
7C
C6
82
ENDCHAR

STARTCHAR Aacute
ENCODING 193
SWIDTH 740 0
DWIDTH 7 0
BBX 7 10 0 0
BITMAP
0C
10
00
10
38
28
44
7C
C6
82
ENDCHAR

STARTCHAR Acircumflex
ENCODING 194
SWIDTH 740 0
DWIDTH 7 0
BBX 7 10 0 0
BITMAP
10
2C
00
10
38
28
44
7C
86
C2
ENDCHAR

STARTCHAR Atilde
ENCODING 195
SWIDTH 740 0
DWIDTH 7 0
BBX 7 10 0 0
BITMAP
14
28
00
10
38
28
44
7C
86
C2
ENDCHAR

STARTCHAR Adieresis
ENCODING 196
SWIDTH 740 0
DWIDTH 7 0
BBX 7 9 0 0
BITMAP
28
00
10
38
28
44
7C
86
C2
ENDCHAR

STARTCHAR Aring
ENCODING 197
SWIDTH 740 0
DWIDTH 7 0
BBX 7 10 0 0
BITMAP
10
28
10
10
38
28
44
7C
86
C2
ENDCHAR

STARTCHAR AE
ENCODING 198
SWIDTH 900 0
DWIDTH 9 0
BBX 8 7 1 0
BITMAP
1F
38
28
4F
78
C8
8F
ENDCHAR

STARTCHAR Ccedilla
ENCODING 199
SWIDTH 780 0
DWIDTH 8 0
BBX 7 9 1 -2
BITMAP
7C
C6
80
80
80
C6
7C
10
30
ENDCHAR

STARTCHAR Egrave
ENCODING 200
SWIDTH 520 0
DWIDTH 5 0
BBX 4 10 1 0
BITMAP
C0
20
00
F0
80
80
F0
80
80
F0
ENDCHAR

STARTCHAR Eacute
ENCODING 201
SWIDTH 520 0
DWIDTH 5 0
BBX 4 10 1 0
BITMAP
30
40
00
F0
80
80
F0
80
80
F0
ENDCHAR

STARTCHAR Ecircumflex
ENCODING 202
SWIDTH 520 0
DWIDTH 5 0
BBX 4 10 1 0
BITMAP
40
B0
00
F0
80
80
F0
80
80
F0
ENDCHAR

STARTCHAR Edieresis
ENCODING 203
SWIDTH 520 0
DWIDTH 5 0
BBX 4 9 1 0
BITMAP
A0
00
F0
80
80
F0
80
80
F0
ENDCHAR

STARTCHAR Igrave
ENCODING 204
SWIDTH 280 0
DWIDTH 3 0
BBX 3 10 -1 0
BITMAP
C0
20
00
20
20
20
20
20
20
20
ENDCHAR

STARTCHAR Iacute
ENCODING 205
SWIDTH 280 0
DWIDTH 3 0
BBX 3 10 0 0
BITMAP
60
80
00
40
40
40
40
40
40
40
ENDCHAR

STARTCHAR Icircumflex
ENCODING 206
SWIDTH 280 0
DWIDTH 3 0
BBX 4 10 0 0
BITMAP
40
B0
00
40
40
40
40
40
40
40
ENDCHAR

STARTCHAR Idieresis
ENCODING 207
SWIDTH 280 0
DWIDTH 3 0
BBX 3 9 0 0
BITMAP
A0
00
40
40
40
40
40
40
40
ENDCHAR

STARTCHAR Eth
ENCODING 208
SWIDTH 742 0
DWIDTH 7 0
BBX 7 7 0 0
BITMAP
7C
46
42
F2
42
46
7C
ENDCHAR

STARTCHAR Ntilde
ENCODING 209
SWIDTH 740 0
DWIDTH 7 0
BBX 6 10 1 0
BITMAP
28
50
00
84
C4
E4
B4
9C
8C
84
ENDCHAR

STARTCHAR Ograve
ENCODING 210
SWIDTH 840 0
DWIDTH 8 0
BBX 7 10 1 0
BITMAP
60
10
00
7C
C6
82
82
82
C6
7C
ENDCHAR

STARTCHAR Oacute
ENCODING 211
SWIDTH 840 0
DWIDTH 8 0
BBX 7 10 1 0
BITMAP
18
20
00
7C
C6
82
82
82
C6
7C
ENDCHAR

STARTCHAR Ocircumflex
ENCODING 212
SWIDTH 840 0
DWIDTH 8 0
BBX 7 10 1 0
BITMAP
10
2C
00
7C
C6
82
82
82
C6
7C
ENDCHAR

STARTCHAR Otilde
ENCODING 213
SWIDTH 840 0
DWIDTH 8 0
BBX 7 10 1 0
BITMAP
14
28
00
7C
C6
82
82
82
C6
7C
ENDCHAR

STARTCHAR Odieresis
ENCODING 214
SWIDTH 840 0
DWIDTH 8 0
BBX 7 9 1 0
BITMAP
28
00
7C
C6
82
82
82
C6
7C
ENDCHAR

STARTCHAR multiply
ENCODING 215
SWIDTH 600 0
DWIDTH 6 0
BBX 4 5 1 1
BITMAP
90
F0
60
D0
90
ENDCHAR

STARTCHAR Oslash
ENCODING 216
SWIDTH 840 0
DWIDTH 8 0
BBX 7 7 1 0
BITMAP
7A
C6
8A
92
A2
C6
BC
ENDCHAR

STARTCHAR Ugrave
ENCODING 217
SWIDTH 640 0
DWIDTH 6 0
BBX 5 10 1 0
BITMAP
C0
20
00
88
88
88
88
88
D8
70
ENDCHAR

STARTCHAR Uacute
ENCODING 218
SWIDTH 640 0
DWIDTH 6 0
BBX 5 10 1 0
BITMAP
30
40
00
88
88
88
88
88
D8
70
ENDCHAR

STARTCHAR Ucircumflex
ENCODING 219
SWIDTH 640 0
DWIDTH 6 0
BBX 5 10 1 0
BITMAP
20
58
00
88
88
88
88
88
D8
70
ENDCHAR

STARTCHAR Udieresis
ENCODING 220
SWIDTH 640 0
DWIDTH 6 0
BBX 5 9 1 0
BITMAP
50
00
88
88
88
88
88
D8
70
ENDCHAR

STARTCHAR Yacute
ENCODING 221
SWIDTH 620 0
DWIDTH 6 0
BBX 5 10 1 0
BITMAP
30
40
00
88
D8
50
20
20
20
20
ENDCHAR

STARTCHAR Thorn
ENCODING 222
SWIDTH 560 0
DWIDTH 6 0
BBX 4 7 1 0
BITMAP
80
80
F0
90
F0
80
80
ENDCHAR

STARTCHAR germandbls
ENCODING 223
SWIDTH 600 0
DWIDTH 6 0
BBX 4 8 1 0
BITMAP
60
B0
90
A0
B0
90
B0
A0
ENDCHAR

STARTCHAR agrave
ENCODING 224
SWIDTH 660 0
DWIDTH 7 0
BBX 6 8 1 0
BITMAP
60
10
00
74
CC
84
CC
74
ENDCHAR

STARTCHAR aacute
ENCODING 225
SWIDTH 660 0
DWIDTH 7 0
BBX 6 8 1 0
BITMAP
30
40
00
74
CC
84
CC
74
ENDCHAR

STARTCHAR acircumflex
ENCODING 226
SWIDTH 660 0
DWIDTH 7 0
BBX 6 8 1 0
BITMAP
20
58
00
74
CC
84
CC
74
ENDCHAR

STARTCHAR atilde
ENCODING 227
SWIDTH 660 0
DWIDTH 7 0
BBX 6 9 1 0
BITMAP
28
50
00
00
74
CC
84
CC
74
ENDCHAR

STARTCHAR adieresis
ENCODING 228
SWIDTH 660 0
DWIDTH 7 0
BBX 6 7 1 0
BITMAP
50
00
74
CC
84
CC
74
ENDCHAR

STARTCHAR aring
ENCODING 229
SWIDTH 660 0
DWIDTH 7 0
BBX 6 9 1 0
BITMAP
20
50
20
00
74
CC
84
CC
74
ENDCHAR

STARTCHAR ae
ENCODING 230
SWIDTH 1080 0
DWIDTH 11 0
BBX 9 5 1 0
BITMAP
7700
CC80
8F80
C800
7780
ENDCHAR

STARTCHAR ccedilla
ENCODING 231
SWIDTH 640 0
DWIDTH 6 0
BBX 5 7 1 -2
BITMAP
70
C8
80
C8
70
20
60
ENDCHAR

STARTCHAR egrave
ENCODING 232
SWIDTH 640 0
DWIDTH 6 0
BBX 5 8 1 0
BITMAP
C0
20
00
70
C8
F8
C0
78
ENDCHAR

STARTCHAR eacute
ENCODING 233
SWIDTH 640 0
DWIDTH 6 0
BBX 5 8 1 0
BITMAP
30
40
00
70
C8
F8
C0
78
ENDCHAR

STARTCHAR ecircumflex
ENCODING 234
SWIDTH 640 0
DWIDTH 6 0
BBX 5 8 1 0
BITMAP
20
58
00
70
C8
F8
C0
78
ENDCHAR

STARTCHAR edieresis
ENCODING 235
SWIDTH 640 0
DWIDTH 6 0
BBX 5 7 1 0
BITMAP
50
00
70
C8
F8
C0
78
ENDCHAR

STARTCHAR igrave
ENCODING 236
SWIDTH 240 0
DWIDTH 2 0
BBX 3 8 -1 0
BITMAP
C0
20
00
20
20
20
20
20
ENDCHAR

STARTCHAR iacute
ENCODING 237
SWIDTH 240 0
DWIDTH 2 0
BBX 3 8 0 0
BITMAP
60
80
00
40
40
40
40
40
ENDCHAR

STARTCHAR icircumflex
ENCODING 238
SWIDTH 240 0
DWIDTH 2 0
BBX 4 8 0 0
BITMAP
40
B0
00
40
40
40
40
40
ENDCHAR

STARTCHAR idieresis
ENCODING 239
SWIDTH 240 0
DWIDTH 2 0
BBX 3 7 0 0
BITMAP
A0
00
40
40
40
40
40
ENDCHAR

STARTCHAR eth
ENCODING 240
SWIDTH 640 0
DWIDTH 6 0
BBX 5 8 1 0
BITMAP
40
30
70
78
C8
88
D8
70
ENDCHAR

STARTCHAR ntilde
ENCODING 241
SWIDTH 600 0
DWIDTH 6 0
BBX 5 8 1 0
BITMAP
28
50
00
B0
E8
C8
88
88
ENDCHAR

STARTCHAR ograve
ENCODING 242
SWIDTH 640 0
DWIDTH 6 0
BBX 5 8 1 0
BITMAP
C0
20
00
70
D8
88
D8
70
ENDCHAR

STARTCHAR oacute
ENCODING 243
SWIDTH 640 0
DWIDTH 6 0
BBX 5 8 1 0
BITMAP
30
40
00
70
D8
88
D8
70
ENDCHAR

STARTCHAR ocircumflex
ENCODING 244
SWIDTH 640 0
DWIDTH 6 0
BBX 5 8 1 0
BITMAP
20
58
00
70
D8
88
D8
70
ENDCHAR

STARTCHAR otilde
ENCODING 245
SWIDTH 640 0
DWIDTH 6 0
BBX 5 8 1 0
BITMAP
28
50
00
70
C8
98
D8
70
ENDCHAR

STARTCHAR odieresis
ENCODING 246
SWIDTH 640 0
DWIDTH 6 0
BBX 5 7 1 0
BITMAP
50
00
70
D8
88
D8
70
ENDCHAR

STARTCHAR divide
ENCODING 247
SWIDTH 600 0
DWIDTH 6 0
BBX 4 7 1 0
BITMAP
60
60
00
F0
00
60
60
ENDCHAR

STARTCHAR oslash
ENCODING 248
SWIDTH 660 0
DWIDTH 7 0
BBX 5 5 1 0
BITMAP
78
D8
A8
C8
F0
ENDCHAR

STARTCHAR ugrave
ENCODING 249
SWIDTH 600 0
DWIDTH 6 0
BBX 5 8 1 0
BITMAP
C0
20
00
88
88
88
D8
70
ENDCHAR

STARTCHAR uacute
ENCODING 250
SWIDTH 600 0
DWIDTH 6 0
BBX 5 8 1 0
BITMAP
30
40
00
88
88
88
D8
70
ENDCHAR

STARTCHAR ucircumflex
ENCODING 251
SWIDTH 600 0
DWIDTH 6 0
BBX 5 8 1 0
BITMAP
20
58
00
88
88
88
D8
70
ENDCHAR

STARTCHAR udieresis
ENCODING 252
SWIDTH 600 0
DWIDTH 6 0
BBX 5 7 1 0
BITMAP
50
00
88
88
88
D8
70
ENDCHAR

STARTCHAR yacute
ENCODING 253
SWIDTH 580 0
DWIDTH 6 0
BBX 5 10 1 -2
BITMAP
18
20
00
88
D8
50
70
20
60
C0
ENDCHAR

STARTCHAR thorn
ENCODING 254
SWIDTH 660 0
DWIDTH 7 0
BBX 5 9 1 -2
BITMAP
80
80
B0
C8
88
D8
B0
80
80
ENDCHAR

STARTCHAR ydieresis
ENCODING 255
SWIDTH 580 0
DWIDTH 6 0
BBX 5 9 1 -2
BITMAP
50
00
88
D8
50
70
20
60
C0
ENDCHAR
ENDFONT
